<?xml version="1.0" encoding="UTF-8"?>
<svg width="22px" height="19px" viewBox="0 0 22 19" version="1.1" xmlns="http://www.w3.org/2000/svg" xmlns:xlink="http://www.w3.org/1999/xlink">
    <!-- Generator: Sketch 50.2 (55047) - http://www.bohemiancoding.com/sketch -->
    <title>icn_twitter</title>
    <desc>Created with Sketch.</desc>
    <defs></defs>
    <g id="Page-1" stroke="none" stroke-width="1" fill="none" fill-rule="evenodd">
        <g id="tw_ui_home_desk_v1" transform="translate(-285.000000, -773.000000)" fill="#9B9B9B">
            <g id="Group-2" transform="translate(285.000000, 773.000000)">
                <path d="M19.7226092,5.28128032 C19.7512552,5.3958636 19.7655779,5.58206086 19.7655779,5.83987274 C19.7655779,7.90236782 19.2642768,9.89324828 18.2616752,11.8125148 C17.2304277,13.8463639 15.7838163,15.4648498 13.9218418,16.6679719 C11.8879927,18.0143227 9.55336242,18.6874984 6.91795226,18.6874984 C4.39712471,18.6874984 2.09114107,18.0143227 0,16.6679719 C0.315103197,16.6966179 0.673175697,16.7109406 1.07421619,16.7109406 C3.16535726,16.7109406 5.04165443,16.0664109 6.70310902,14.7773514 C5.70050746,14.7773514 4.81965019,14.4837326 4.06053719,13.8964942 C3.3014242,13.3092558 2.77863943,12.5716277 2.49218156,11.6836088 C2.77863943,11.7122548 3.05077398,11.7265775 3.30858586,11.7265775 C3.70962635,11.7265775 4.1106675,11.6836088 4.51170799,11.5976715 C3.48046045,11.3685056 2.6210875,10.8385585 1.93358914,10.0078316 C1.24609078,9.17710459 0.902341599,8.23179434 0.902341599,7.17190082 L0.902341599,7.08596352 C1.53254865,7.45835869 2.20572369,7.6588786 2.92186803,7.68752459 C2.32030697,7.25783811 1.83332918,6.71356836 1.46093402,6.05471598 C1.08853885,5.3958636 0.902341599,4.6725576 0.902341599,3.88479928 C0.902341599,3.09704096 1.11718484,2.34508963 1.54687131,1.62894528 C2.66405615,3.03258799 4.03189121,4.14977282 5.65037715,4.98049979 C7.2688631,5.81122676 8.99477,6.26955922 10.8280992,6.35549651 C10.7708079,6.01174733 10.7421619,5.66799815 10.7421619,5.32424897 C10.7421619,4.52216733 10.9426825,3.770216 11.343723,3.06839497 C11.7447634,2.36657395 12.2890332,1.81514254 12.9765316,1.41410204 C13.6640299,1.01306155 14.4088196,0.812540978 15.2109012,0.812540978 C15.8697536,0.812540978 16.4784763,0.941446921 17.0370688,1.19925881 C17.5956612,1.45707069 18.0898006,1.80081987 18.5194871,2.23050635 C19.5507346,2.02998577 20.5103675,1.67191393 21.3983865,1.15629016 C21.0546373,2.21618368 20.3957849,3.04691065 19.4218287,3.64847172 C20.2812016,3.53388844 21.1405746,3.29039987 21.9999475,2.91800471 C21.3697405,3.83466897 20.6106282,4.62242795 19.7226092,5.28128032 Z" id="icn_twitter"></path>
            </g>
        </g>
    </g>
</svg>